<svg width="25" height="18" viewBox="0 0 25 18" fill="none" xmlns="http://www.w3.org/2000/svg">
<path d="M21.5758 16.5526L20.2494 11.869H12.3594C12.0155 11.869 11.7229 11.6496 11.6293 11.3254L10.1603 6.13086H1.34345C0.796477 6.13086 0.383929 6.66818 0.52949 7.18544L1.85589 11.869L3.32487 17.0636C3.4151 17.3878 3.70771 17.6072 4.05194 17.6072H20.7622C21.3092 17.6072 21.7217 17.0699 21.5762 16.5526H21.5758Z" fill="url(#paint0_linear_3491_25960)"/>
<path d="M8.50762 11.869H20.2487L18.7797 6.67449C18.6895 6.35032 18.3969 6.13086 18.0527 6.13086H6.30859L7.77758 11.3254C7.87115 11.6496 8.16376 11.869 8.50762 11.869Z" fill="#0594CC"/>
<path d="M20.2493 11.8689H23.6556C24.2025 11.8689 24.6184 11.3316 24.4695 10.8144L21.6741 0.936207C21.5839 0.612035 21.2913 0.392578 20.9471 0.392578H5.79974C5.25277 0.392578 4.83688 0.929894 4.98244 1.44716L6.30884 6.13076H18.0533C18.3971 6.13076 18.6898 6.35021 18.7804 6.67439L20.2493 11.8689Z" fill="url(#paint1_linear_3491_25960)"/>
<path d="M9.36384 4.04868H7.72033C7.57848 4.04868 7.45372 3.95437 7.4151 3.81772L7.07904 2.6302C7.02186 2.42782 7.17373 2.22656 7.38428 2.22656H9.02779C9.16964 2.22656 9.2944 2.32088 9.33302 2.45753L9.66908 3.64505C9.72626 3.84742 9.57439 4.04868 9.36384 4.04868Z" fill="url(#paint2_linear_3491_25960)"/>
<path d="M18.9824 15.9256H5.31408C5.17223 15.9256 5.04747 15.8313 5.00885 15.6947L4.67279 14.5072C4.61561 14.3048 4.76748 14.1035 4.97803 14.1035H18.6464C18.7882 14.1035 18.913 14.1978 18.9516 14.3345L19.2876 15.522C19.3448 15.7244 19.193 15.9256 18.9824 15.9256Z" fill="url(#paint3_linear_3491_25960)"/>
<defs>
<linearGradient id="paint0_linear_3491_25960" x1="22.5996" y1="17.7283" x2="4.51981" y2="10.9225" gradientUnits="userSpaceOnUse">
<stop stop-color="#B8EDFF"/>
<stop offset="1" stop-color="#09B8F1"/>
</linearGradient>
<linearGradient id="paint1_linear_3491_25960" x1="28.7792" y1="8.72042" x2="14.9842" y2="4.32089" gradientUnits="userSpaceOnUse">
<stop stop-color="#B8EDFF"/>
<stop offset="1" stop-color="#09B8F1"/>
</linearGradient>
<linearGradient id="paint2_linear_3491_25960" x1="10.0928" y1="3.13781" x2="6.30222" y2="3.13781" gradientUnits="userSpaceOnUse">
<stop stop-color="#50D5FE"/>
<stop offset="1" stop-color="#E0F4FF"/>
</linearGradient>
<linearGradient id="paint3_linear_3491_25960" x1="18.0039" y1="15.0148" x2="3.52427" y2="15.0148" gradientUnits="userSpaceOnUse">
<stop stop-color="#50D5FE"/>
<stop offset="1" stop-color="#E0F4FF"/>
</linearGradient>
</defs>
</svg>
