<svg width="121" height="17" viewBox="0 0 121 17" fill="none" xmlns="http://www.w3.org/2000/svg">
<path d="M14.5505 13.0943L13.6663 9.97194H8.40624C8.177 9.97194 7.98193 9.82563 7.91955 9.60952L6.94022 6.14648H1.0623C0.697652 6.14648 0.422619 6.50469 0.51966 6.84954L1.40392 9.97194L2.38325 13.435C2.4434 13.6511 2.63848 13.7974 2.86796 13.7974H14.0081C14.3728 13.7974 14.6478 13.4392 14.5508 13.0943H14.5505Z" fill="#23353E" fill-opacity="0.5"/>
<path d="M14.5505 13.0943L13.6663 9.97194H8.40624C8.177 9.97194 7.98193 9.82563 7.91955 9.60952L6.94022 6.14648H1.0623C0.697652 6.14648 0.422619 6.50469 0.51966 6.84954L1.40392 9.97194L2.38325 13.435C2.4434 13.6511 2.63848 13.7974 2.86796 13.7974H14.0081C14.3728 13.7974 14.6478 13.4392 14.5508 13.0943H14.5505Z" fill="url(#paint0_linear_3396_15173)"/>
<mask id="path-2-inside-1_3396_15173" fill="white">
<path d="M5.83857 9.97194H13.666L12.6867 6.5089C12.6265 6.29279 12.4314 6.14648 12.2019 6.14648H4.37256L5.35188 9.60952C5.41427 9.82563 5.60934 9.97194 5.83857 9.97194Z"/>
</mask>
<path d="M5.83857 9.97194H13.666L12.6867 6.5089C12.6265 6.29279 12.4314 6.14648 12.2019 6.14648H4.37256L5.35188 9.60952C5.41427 9.82563 5.60934 9.97194 5.83857 9.97194Z" fill="#23283E" fill-opacity="0.5"/>
<path d="M5.83857 9.97194H13.666L12.6867 6.5089C12.6265 6.29279 12.4314 6.14648 12.2019 6.14648H4.37256L5.35188 9.60952C5.41427 9.82563 5.60934 9.97194 5.83857 9.97194Z" fill="url(#paint1_linear_3396_15173)"/>
<path d="M13.666 9.97194V109.972H145.867L109.892 -17.2402L13.666 9.97194ZM12.6867 6.5089L-83.6509 33.3245L-83.5957 33.5229L-83.5396 33.7211L12.6867 6.5089ZM4.37256 6.14648V-93.8535H-127.829L-91.8537 33.3587L4.37256 6.14648ZM5.35188 9.60952L-90.8744 36.8217L-90.8006 37.0826L-90.7254 37.3432L5.35188 9.60952ZM5.83857 109.972H13.666V-90.0281H5.83857V109.972ZM109.892 -17.2402L108.913 -20.7033L-83.5396 33.7211L-82.5603 37.1841L109.892 -17.2402ZM109.024 -20.3067C96.6015 -64.9366 56.1198 -93.8535 12.2019 -93.8535V106.146C-31.257 106.146 -71.3484 77.5222 -83.6509 33.3245L109.024 -20.3067ZM12.2019 -93.8535H4.37256V106.146H12.2019V-93.8535ZM-91.8537 33.3587L-90.8744 36.8217L101.578 -17.6027L100.599 -21.0657L-91.8537 33.3587ZM-90.7254 37.3432C-78.1316 80.9717 -38.2969 109.972 5.83857 109.972V-90.0281C49.5155 -90.0281 88.9601 -61.3204 101.429 -18.1241L-90.7254 37.3432Z" fill="#23263E" fill-opacity="0.28" mask="url(#path-2-inside-1_3396_15173)"/>
<path d="M13.6662 9.97219H15.937C16.3017 9.97219 16.579 9.61398 16.4797 9.26914L14.6161 2.68371C14.5559 2.46759 14.3609 2.32129 14.1314 2.32129H4.03316C3.66852 2.32129 3.39125 2.6795 3.4883 3.02434L4.37256 6.14674H12.2022C12.4314 6.14674 12.6265 6.29305 12.6869 6.50916L13.6662 9.97219Z" fill="#23353E" fill-opacity="0.5"/>
<path d="M13.6662 9.97219H15.937C16.3017 9.97219 16.579 9.61398 16.4797 9.26914L14.6161 2.68371C14.5559 2.46759 14.3609 2.32129 14.1314 2.32129H4.03316C3.66852 2.32129 3.39125 2.6795 3.4883 3.02434L4.37256 6.14674H12.2022C12.4314 6.14674 12.6265 6.29305 12.6869 6.50916L13.6662 9.97219Z" fill="url(#paint2_linear_3396_15173)"/>
<path d="M6.40923 4.75967H5.31355C5.21899 4.75967 5.13581 4.69679 5.11006 4.60569L4.88603 3.81401C4.8479 3.6791 4.94915 3.54492 5.08952 3.54492H6.18519C6.27976 3.54492 6.36294 3.6078 6.38868 3.6989L6.61272 4.49058C6.65084 4.6255 6.54959 4.75967 6.40923 4.75967Z" fill="url(#paint3_linear_3396_15173)"/>
<path d="M12.8218 12.6757H3.70955C3.61498 12.6757 3.53181 12.6128 3.50606 12.5217L3.28202 11.73C3.2439 11.5951 3.34515 11.4609 3.48551 11.4609H12.5977C12.6923 11.4609 12.7755 11.5238 12.8012 11.6149L13.0253 12.4066C13.0634 12.5415 12.9621 12.6757 12.8218 12.6757Z" fill="url(#paint4_linear_3396_15173)"/>
<path d="M23.4588 12.0596V3.3323H28.9304V4.46582H24.7756V7.12491H28.6449V8.25417H24.7756V10.926H28.9815V12.0596H23.4588ZM31.6212 3.3323V12.0596H30.347V3.3323H31.6212ZM33.0953 12.0596V5.51412H34.3694V12.0596H33.0953ZM33.7388 4.50417C33.5172 4.50417 33.3268 4.43031 33.1677 4.28258C33.0115 4.13201 32.9334 3.95304 32.9334 3.74565C32.9334 3.53542 33.0115 3.35645 33.1677 3.20872C33.3268 3.05815 33.5172 2.98287 33.7388 2.98287C33.9603 2.98287 34.1493 3.05815 34.3055 3.20872C34.4646 3.35645 34.5441 3.53542 34.5441 3.74565C34.5441 3.95304 34.4646 4.13201 34.3055 4.28258C34.1493 4.43031 33.9603 4.50417 33.7388 4.50417ZM38.899 5.51412V6.53684H35.3237V5.51412H38.899ZM36.2825 3.94593H37.5566V10.1377C37.5566 10.3849 37.5936 10.5709 37.6674 10.6959C37.7413 10.8181 37.8365 10.9019 37.9529 10.9474C38.0723 10.99 38.2015 11.0113 38.3407 11.0113C38.443 11.0113 38.5325 11.0042 38.6092 10.99C38.6859 10.9758 38.7456 10.9644 38.7882 10.9559L39.0183 12.0084C38.9444 12.0368 38.8393 12.0653 38.7029 12.0937C38.5666 12.1249 38.3961 12.142 38.1916 12.1448C37.8563 12.1505 37.5438 12.0908 37.2541 11.9658C36.9643 11.8408 36.7299 11.6476 36.551 11.3863C36.372 11.1249 36.2825 10.7968 36.2825 10.4019V3.94593ZM42.8191 12.1917C42.1742 12.1917 41.6188 12.0539 41.1529 11.7783C40.6899 11.4999 40.3319 11.1093 40.0791 10.6064C39.8291 10.1008 39.7041 9.50843 39.7041 8.82946C39.7041 8.159 39.8291 7.56809 40.0791 7.05673C40.3319 6.54537 40.6842 6.14622 41.1359 5.85929C41.5904 5.57235 42.1217 5.42889 42.7296 5.42889C43.0989 5.42889 43.4569 5.48997 43.8035 5.61213C44.1501 5.73429 44.4612 5.92605 44.7367 6.18741C45.0123 6.44877 45.2296 6.78826 45.3887 7.20588C45.5478 7.62065 45.6274 8.12491 45.6274 8.71866V9.17037H40.4242V8.21582H44.3788C44.3788 7.88059 44.3106 7.58372 44.1742 7.3252C44.0379 7.06383 43.8461 6.85787 43.5989 6.7073C43.3546 6.55673 43.0677 6.48145 42.7382 6.48145C42.3802 6.48145 42.0677 6.56951 41.8007 6.74565C41.5364 6.91895 41.3319 7.14622 41.187 7.42747C41.045 7.70588 40.9739 8.00843 40.9739 8.33514V9.08088C40.9739 9.51838 41.0507 9.89054 41.2041 10.1974C41.3603 10.5042 41.5776 10.7385 41.8561 10.9005C42.1345 11.0596 42.4597 11.1391 42.8319 11.1391C43.0734 11.1391 43.2936 11.105 43.4924 11.0368C43.6913 10.9658 43.8632 10.8607 44.008 10.7215C44.1529 10.5823 44.2637 10.4104 44.3404 10.2059L45.5464 10.4232C45.4498 10.7783 45.2765 11.0894 45.0265 11.3564C44.7793 11.6206 44.4683 11.8266 44.0933 11.9743C43.7211 12.1192 43.2964 12.1917 42.8191 12.1917ZM49.4087 4.46582V3.3323H56.163V4.46582H53.44V12.0596H52.1275V4.46582H49.4087ZM56.6336 12.0596V5.51412H57.8651V6.55389H57.9333C58.0526 6.20162 58.2628 5.92463 58.564 5.72292C58.8679 5.51838 59.2117 5.4161 59.5952 5.4161C59.6748 5.4161 59.7685 5.41895 59.8765 5.42463C59.9873 5.43031 60.0739 5.43741 60.1364 5.44593V6.66468C60.0853 6.65048 59.9944 6.63485 59.8637 6.61781C59.733 6.59792 59.6023 6.58798 59.4716 6.58798C59.1705 6.58798 58.902 6.6519 58.6662 6.77974C58.4333 6.90474 58.2486 7.07946 58.1123 7.30389C57.9759 7.52548 57.9077 7.77832 57.9077 8.06241V12.0596H56.6336ZM62.8453 12.2045C62.4305 12.2045 62.0555 12.1278 61.7203 11.9743C61.385 11.8181 61.1194 11.5922 60.9234 11.2968C60.7302 11.0013 60.6336 10.6391 60.6336 10.2101C60.6336 9.84082 60.7046 9.53684 60.8467 9.29821C60.9887 9.05957 61.1805 8.87065 61.422 8.73145C61.6635 8.59224 61.9333 8.48713 62.2316 8.4161C62.5299 8.34508 62.8339 8.2911 63.1436 8.25417C63.5356 8.20872 63.8538 8.17179 64.0981 8.14338C64.3424 8.11213 64.52 8.06241 64.6308 7.99423C64.7416 7.92605 64.797 7.81525 64.797 7.66184V7.63201C64.797 7.25985 64.6919 6.9715 64.4816 6.76696C64.2742 6.56241 63.9646 6.46014 63.5527 6.46014C63.1237 6.46014 62.7856 6.55531 62.5385 6.74565C62.2941 6.93315 62.1251 7.14196 62.0314 7.37207L60.8339 7.09934C60.976 6.70162 61.1833 6.38059 61.4561 6.13627C61.7316 5.88912 62.0484 5.71014 62.4064 5.59934C62.7643 5.48571 63.1407 5.42889 63.5356 5.42889C63.797 5.42889 64.074 5.46014 64.3666 5.52264C64.662 5.5823 64.9376 5.69309 65.1933 5.85502C65.4518 6.01696 65.6635 6.24849 65.8282 6.54963C65.993 6.84792 66.0754 7.23571 66.0754 7.71298V12.0596H64.8311V11.1647H64.7799C64.6975 11.3295 64.574 11.4914 64.4092 11.6505C64.2444 11.8096 64.0328 11.9417 63.7742 12.0468C63.5157 12.1519 63.2061 12.2045 62.8453 12.2045ZM63.1223 11.1817C63.4745 11.1817 63.7757 11.1121 64.0257 10.9729C64.2785 10.8337 64.4703 10.6519 64.601 10.4275C64.7345 10.2002 64.8012 9.9573 64.8012 9.69877V8.85502C64.7558 8.90048 64.6677 8.94309 64.537 8.98287C64.4092 9.0198 64.2629 9.05247 64.0981 9.08088C63.9333 9.10645 63.7728 9.13059 63.6166 9.15332C63.4603 9.17321 63.3296 9.19025 63.2245 9.20446C62.9774 9.23571 62.7515 9.28826 62.547 9.36213C62.3453 9.43599 62.1833 9.54252 62.0612 9.68173C61.9419 9.81809 61.8822 9.99991 61.8822 10.2272C61.8822 10.5425 61.9987 10.7812 62.2316 10.9431C62.4646 11.1022 62.7615 11.1817 63.1223 11.1817ZM69.9828 12.1874C69.4543 12.1874 68.9828 12.0525 68.568 11.7826C68.1561 11.5099 67.8322 11.1221 67.5964 10.6192C67.3634 10.1135 67.247 9.50701 67.247 8.79963C67.247 8.09224 67.3649 7.48713 67.6007 6.98429C67.8393 6.48145 68.166 6.0965 68.5808 5.82946C68.9955 5.56241 69.4657 5.42889 69.9913 5.42889C70.3975 5.42889 70.7242 5.49707 70.9714 5.63343C71.2214 5.76696 71.4146 5.92321 71.5509 6.10218C71.6901 6.28116 71.7981 6.43883 71.8748 6.5752H71.9515V3.3323H73.2257V12.0596H71.9813V11.0411H71.8748C71.7981 11.1803 71.6873 11.3394 71.5424 11.5184C71.4004 11.6974 71.2043 11.8536 70.9543 11.9871C70.7043 12.1206 70.3805 12.1874 69.9828 12.1874ZM70.264 11.1008C70.6305 11.1008 70.9401 11.0042 71.193 10.811C71.4487 10.615 71.6418 10.3437 71.7725 9.99707C71.9061 9.65048 71.9728 9.24707 71.9728 8.78684C71.9728 8.3323 71.9075 7.93457 71.7768 7.59366C71.6461 7.25275 71.4543 6.98713 71.2015 6.79679C70.9487 6.60645 70.6362 6.51127 70.264 6.51127C69.8805 6.51127 69.5609 6.61071 69.3052 6.80957C69.0495 7.00843 68.8563 7.27974 68.7257 7.62349C68.5978 7.96724 68.5339 8.35502 68.5339 8.78684C68.5339 9.22434 68.5992 9.61781 68.7299 9.96724C68.8606 10.3167 69.0538 10.5937 69.3095 10.7982C69.568 10.9999 69.8862 11.1008 70.264 11.1008ZM77.6252 12.1917C76.9803 12.1917 76.4249 12.0539 75.959 11.7783C75.496 11.4999 75.138 11.1093 74.8852 10.6064C74.6352 10.1008 74.5102 9.50843 74.5102 8.82946C74.5102 8.159 74.6352 7.56809 74.8852 7.05673C75.138 6.54537 75.4903 6.14622 75.942 5.85929C76.3965 5.57235 76.9278 5.42889 77.5357 5.42889C77.905 5.42889 78.263 5.48997 78.6096 5.61213C78.9562 5.73429 79.2673 5.92605 79.5428 6.18741C79.8184 6.44877 80.0357 6.78826 80.1948 7.20588C80.3539 7.62065 80.4335 8.12491 80.4335 8.71866V9.17037H75.2303V8.21582H79.1849C79.1849 7.88059 79.1167 7.58372 78.9803 7.3252C78.844 7.06383 78.6522 6.85787 78.405 6.7073C78.1607 6.55673 77.8738 6.48145 77.5442 6.48145C77.1863 6.48145 76.8738 6.56951 76.6067 6.74565C76.3425 6.91895 76.138 7.14622 75.9931 7.42747C75.8511 7.70588 75.78 8.00843 75.78 8.33514V9.08088C75.78 9.51838 75.8567 9.89054 76.0102 10.1974C76.1664 10.5042 76.3837 10.7385 76.6621 10.9005C76.9406 11.0596 77.2658 11.1391 77.638 11.1391C77.8795 11.1391 78.0996 11.105 78.2985 11.0368C78.4974 10.9658 78.6692 10.8607 78.8141 10.7215C78.959 10.5823 79.0698 10.4104 79.1465 10.2059L80.3525 10.4232C80.2559 10.7783 80.0826 11.0894 79.8326 11.3564C79.5854 11.6206 79.2744 11.8266 78.8994 11.9743C78.5272 12.1192 78.1025 12.1917 77.6252 12.1917ZM81.6072 12.0596V5.51412H82.8387V6.55389H82.9069C83.0262 6.20162 83.2364 5.92463 83.5376 5.72292C83.8415 5.51838 84.1853 5.4161 84.5688 5.4161C84.6484 5.4161 84.7421 5.41895 84.8501 5.42463C84.9609 5.43031 85.0475 5.43741 85.11 5.44593V6.66468C85.0589 6.65048 84.968 6.63485 84.8373 6.61781C84.7066 6.59792 84.5759 6.58798 84.4452 6.58798C84.1441 6.58798 83.8756 6.6519 83.6398 6.77974C83.4069 6.90474 83.2222 7.07946 83.0859 7.30389C82.9495 7.52548 82.8813 7.77832 82.8813 8.06241V12.0596H81.6072ZM90.8775 7.11213L89.7226 7.31667C89.6743 7.16895 89.5976 7.02832 89.4925 6.8948C89.3902 6.76127 89.251 6.6519 89.0749 6.56667C88.8988 6.48145 88.6786 6.43883 88.4144 6.43883C88.0536 6.43883 87.7525 6.5198 87.511 6.68173C87.2695 6.84082 87.1488 7.04679 87.1488 7.29963C87.1488 7.51838 87.2297 7.69451 87.3917 7.82804C87.5536 7.96156 87.815 8.07093 88.1758 8.15616L89.2155 8.3948C89.8178 8.534 90.2667 8.74849 90.5621 9.03826C90.8576 9.32804 91.0053 9.70446 91.0053 10.1675C91.0053 10.5596 90.8917 10.909 90.6644 11.2158C90.44 11.5198 90.126 11.7584 89.7226 11.9317C89.3221 12.105 88.8576 12.1917 88.3292 12.1917C87.5962 12.1917 86.9982 12.0354 86.5351 11.7229C86.0721 11.4076 85.788 10.9601 85.6829 10.3806L86.9144 10.1931C86.9911 10.5141 87.1488 10.757 87.3874 10.9218C87.626 11.0837 87.9371 11.1647 88.3206 11.1647C88.7383 11.1647 89.0721 11.078 89.3221 10.9047C89.5721 10.7286 89.6971 10.5141 89.6971 10.2613C89.6971 10.0567 89.6204 9.88485 89.4669 9.74565C89.3164 9.60645 89.0848 9.50133 88.7723 9.43031L87.6644 9.18741C87.0536 9.04821 86.6019 8.82662 86.3093 8.52264C86.0195 8.21866 85.8746 7.83372 85.8746 7.36781C85.8746 6.98145 85.9826 6.64338 86.1985 6.3536C86.4144 6.06383 86.7127 5.83798 87.0934 5.67605C87.474 5.51127 87.9101 5.42889 88.4016 5.42889C89.109 5.42889 89.6658 5.5823 90.0721 5.88912C90.4783 6.19309 90.7468 6.60076 90.8775 7.11213ZM102.785 7.69593C102.785 8.62775 102.615 9.42889 102.274 10.0993C101.933 10.767 101.466 11.2812 100.872 11.642C100.281 11.9999 99.6091 12.1789 98.8563 12.1789C98.1006 12.1789 97.4259 11.9999 96.8321 11.642C96.2412 11.2812 95.7753 10.7655 95.4344 10.0951C95.0935 9.42463 94.923 8.62491 94.923 7.69593C94.923 6.76412 95.0935 5.9644 95.4344 5.29679C95.7753 4.62633 96.2412 4.11213 96.8321 3.75417C97.4259 3.39338 98.1006 3.21298 98.8563 3.21298C99.6091 3.21298 100.281 3.39338 100.872 3.75417C101.466 4.11213 101.933 4.62633 102.274 5.29679C102.615 5.9644 102.785 6.76412 102.785 7.69593ZM101.481 7.69593C101.481 6.98571 101.366 6.3877 101.136 5.9019C100.909 5.41326 100.596 5.04395 100.199 4.79395C99.8037 4.5411 99.3563 4.41468 98.8563 4.41468C98.3534 4.41468 97.9046 4.5411 97.5097 4.79395C97.1148 5.04395 96.8023 5.41326 96.5722 5.9019C96.3449 6.3877 96.2313 6.98571 96.2313 7.69593C96.2313 8.40616 96.3449 9.00559 96.5722 9.49423C96.8023 9.98002 97.1148 10.3493 97.5097 10.6022C97.9046 10.8522 98.3534 10.9772 98.8563 10.9772C99.3563 10.9772 99.8037 10.8522 100.199 10.6022C100.596 10.3493 100.909 9.98002 101.136 9.49423C101.366 9.00559 101.481 8.40616 101.481 7.69593ZM105.359 8.17321V12.0596H104.085V5.51412H105.308V6.57946H105.389C105.539 6.23287 105.775 5.95446 106.096 5.74423C106.42 5.534 106.828 5.42889 107.319 5.42889C107.765 5.42889 108.156 5.52264 108.491 5.71014C108.826 5.8948 109.086 6.17037 109.271 6.53684C109.455 6.90332 109.548 7.35645 109.548 7.89622V12.0596H108.274V8.04963C108.274 7.5752 108.15 7.20446 107.903 6.93741C107.656 6.66752 107.316 6.53258 106.884 6.53258C106.589 6.53258 106.326 6.5965 106.096 6.72434C105.869 6.85218 105.688 7.03968 105.555 7.28684C105.424 7.53116 105.359 7.82662 105.359 8.17321ZM112.291 3.3323V12.0596H111.017V3.3323H112.291ZM114.57 14.5141C114.38 14.5141 114.207 14.4985 114.05 14.4672C113.894 14.4388 113.778 14.4076 113.701 14.3735L114.008 13.3295C114.241 13.392 114.448 13.4189 114.63 13.4104C114.812 13.4019 114.972 13.3337 115.111 13.2059C115.253 13.078 115.378 12.8692 115.486 12.5795L115.644 12.1448L113.249 5.51412H114.613L116.27 10.5937H116.339L117.996 5.51412H119.364L116.667 12.9331C116.542 13.2741 116.383 13.5624 116.19 13.7982C115.996 14.0368 115.766 14.2158 115.499 14.3351C115.232 14.4545 114.922 14.5141 114.57 14.5141Z" fill="url(#paint5_linear_3396_15173)"/>
<defs>
<linearGradient id="paint0_linear_3396_15173" x1="1.15084" y1="6.35882" x2="6.5969" y2="16.8539" gradientUnits="userSpaceOnUse">
<stop stop-color="#5865F2"/>
<stop offset="1" stop-color="#83B2FF"/>
</linearGradient>
<linearGradient id="paint1_linear_3396_15173" x1="4.80243" y1="6.25265" x2="7.0691" y2="12.0228" gradientUnits="userSpaceOnUse">
<stop stop-color="#5865F2"/>
<stop offset="1" stop-color="#5893F2"/>
</linearGradient>
<linearGradient id="paint2_linear_3396_15173" x1="4.07152" y1="2.53363" x2="9.75201" y2="12.672" gradientUnits="userSpaceOnUse">
<stop stop-color="#5865F2"/>
<stop offset="1" stop-color="#83B2FF"/>
</linearGradient>
<linearGradient id="paint3_linear_3396_15173" x1="4.95855" y1="3.57864" x2="5.93384" y2="5.04495" gradientUnits="userSpaceOnUse">
<stop stop-color="#A4ACFF"/>
<stop offset="1" stop-color="#A3C6FE"/>
</linearGradient>
<linearGradient id="paint4_linear_3396_15173" x1="3.72536" y1="11.4947" x2="3.97309" y2="13.5802" gradientUnits="userSpaceOnUse">
<stop stop-color="#A4ACFF"/>
<stop offset="1" stop-color="#A3C6FE"/>
</linearGradient>
<linearGradient id="paint5_linear_3396_15173" x1="73.46" y1="30.5" x2="67.853" y2="-5.46618" gradientUnits="userSpaceOnUse">
<stop stop-color="#6D75B9"/>
<stop offset="1" stop-color="#BBC0EA"/>
</linearGradient>
</defs>
</svg>
