<svg width="44" height="24" viewBox="0 0 44 24" fill="none" xmlns="http://www.w3.org/2000/svg">
<g clip-path="url(#clip0_2993_5137)">
<path d="M7.54344 8.87156C8.08227 8.98063 8.75103 9.238 9.27437 9.78161C9.67669 10.1835 9.89338 10.6987 10.1071 11.1733C10.1071 11.1733 10.0589 10.9889 10.0431 10.7048C10.0176 10.4189 9.983 10.0409 9.95329 9.66383C9.9187 9.28589 9.88899 8.9088 9.86262 8.62779C9.86637 8.347 9.86944 8.15656 9.86944 8.15656C9.46416 8.14617 8.43351 8.06188 7.79159 7.16086C7.59514 6.8753 7.43901 6.53145 7.35372 6.18487C7.28879 5.83682 7.26628 5.47606 7.26135 5.15858C7.26698 4.52129 7.35206 4.03356 7.35206 4.03356C7.35206 4.03356 7.71151 4.07616 8.15126 4.26343C8.59504 4.45644 9.124 4.79497 9.47215 5.3633C9.72475 5.75916 9.82229 6.20839 9.9086 6.63556C9.9086 6.63556 9.90843 6.55009 9.92079 6.42158C9.93804 6.29392 9.95721 6.12639 9.98126 5.95971C10.0253 5.62062 10.0694 5.28153 10.0694 5.28153C9.94651 5.06409 9.75794 4.70452 9.64577 4.25274C9.55714 3.81009 9.53429 3.2784 9.66775 2.74382C9.81085 2.0099 10.357 1.47193 10.7455 1.11753C11.1535 0.766539 11.4991 0.600658 11.4991 0.600658C11.4991 0.600658 11.6501 0.973779 11.7561 1.48982C11.8758 2.01328 11.8662 2.64484 11.7473 3.29756C11.6338 3.77531 11.3808 4.18852 11.1096 4.53322C10.8579 4.88132 10.6084 5.15944 10.4272 5.33388C10.4272 5.33388 10.3303 5.97537 10.2725 6.62366C10.2546 7.27388 10.2415 7.92495 10.2415 7.92495C10.3635 7.514 10.5531 7.08973 10.8533 6.78025C11.2841 6.32769 11.9159 6.19164 12.3761 6.14628C12.8502 6.10835 13.2062 6.17046 13.2062 6.17046C13.2062 6.17046 13.2006 6.25995 13.1751 6.40627C13.1496 6.55259 13.0992 6.75489 13.0584 6.989C12.967 7.45552 12.7576 8.02209 12.3268 8.47465C11.7159 9.18225 10.7059 9.383 10.2929 9.41651C10.2929 9.41651 10.3598 10.1569 10.4209 10.9013C10.5701 11.6309 10.7192 12.3606 10.7192 12.3606C10.7386 11.8463 10.8387 11.3009 11.1026 10.8544C11.5247 10.2495 12.1496 9.95146 12.6636 9.79988C13.1824 9.64914 13.587 9.63429 13.587 9.63429C13.587 9.63429 13.628 10.0334 13.6012 10.5615C13.616 11.0817 13.5304 11.7453 13.1693 12.3457C12.6323 13.2923 11.5681 13.7751 11.1315 13.9151C11.1315 13.9151 11.3592 14.5981 11.5868 15.2811C11.8904 15.9321 12.1988 16.584 12.1988 16.584C12.0861 15.9914 11.9908 15.3566 12.2411 14.757C12.5497 13.9966 13.1539 13.5291 13.6811 13.2441C14.2082 12.9591 14.6502 12.8453 14.6502 12.8453C14.6502 12.8453 14.8165 13.2462 14.8871 13.8214C14.9903 14.3821 15.0981 15.0895 14.8385 15.8282C14.4935 16.9993 13.4406 17.8208 13.0137 18.0781C13.0137 18.0781 13.3723 18.6733 13.7594 19.2485C14.1973 19.7922 14.6303 20.3352 14.6303 20.3352C14.342 19.7119 14.0444 19.0268 14.19 18.2782C14.3302 17.388 14.8739 16.7491 15.3704 16.323C15.8726 15.893 16.3244 15.6652 16.3244 15.6652C16.3244 15.6652 16.5959 16.0393 16.8113 16.6196C16.9034 16.9272 17.0631 17.2214 17.141 17.5818C17.2303 17.9341 17.2713 18.3332 17.2274 18.7578C17.1669 20.0841 16.2225 21.2914 15.8567 21.6598C15.8567 21.6598 15.9989 21.7952 16.2082 22.0076C16.3156 22.1117 16.4352 22.2331 16.5685 22.3619C16.7141 22.4778 16.8744 22.5962 17.029 22.7187C17.6537 23.1995 18.2833 23.6813 18.2833 23.6813L18.0809 23.9777C18.0809 23.9777 17.1792 23.2977 16.2974 22.591C15.8942 22.194 15.4902 21.8019 15.1904 21.5034C15.0402 21.3565 14.9117 21.2286 14.8261 21.1433C14.7413 21.0531 14.701 20.9958 14.701 20.9958C14.307 21.3241 13.1161 22.3025 11.512 21.8468C10.4956 21.5941 9.68574 20.7341 9.08084 19.9954C8.93249 19.8087 8.79791 19.6294 8.67626 19.4624C8.57095 19.2882 8.48832 19.1281 8.42095 18.9957C8.28132 18.7301 8.211 18.557 8.211 18.557C8.211 18.557 8.64759 18.3015 9.30552 18.1599C9.63491 18.0867 10.0146 18.0424 10.4181 18.0625C10.8111 18.0858 11.2443 18.1664 11.7047 18.3221C12.4474 18.5874 13.0321 19.0965 13.5553 19.5546C13.5553 19.5546 13.4317 19.4275 13.3016 19.1937C13.16 18.968 12.9759 18.6695 12.7869 18.3702C12.5978 18.0708 12.4088 17.7715 12.273 17.5418C12.1478 17.3088 12.0758 17.1455 12.0758 17.1455C11.642 17.3563 10.3923 17.9223 9.10029 17.2044C8.26514 16.7773 7.7388 15.8763 7.36847 15.1182C7.18904 14.7351 7.03779 14.3921 6.97218 14.1344C6.90657 13.8767 6.87929 13.7161 6.87929 13.7161C6.87929 13.7161 7.31581 13.5762 7.91896 13.5758C8.22011 13.5781 8.56175 13.6075 8.91184 13.7038C9.27826 13.7928 9.65972 13.9398 10.0152 14.1777C10.5798 14.5426 10.9893 15.0764 11.3298 15.573C11.3298 15.573 11.3074 15.5289 11.2745 15.4578C11.2474 15.3827 11.2117 15.2709 11.1687 15.1428C11.0835 14.8817 10.9633 14.5341 10.8479 14.1873C10.7325 13.8404 10.6064 13.4968 10.5319 13.2325C10.4786 12.9619 10.4393 12.7842 10.4393 12.7842C10.0015 12.8736 8.81969 13.0796 7.86409 12.2194C7.57474 11.9477 7.29816 11.603 7.13738 11.2282C6.97661 10.8533 6.85995 10.4561 6.78209 10.0957C6.62149 9.37413 6.60058 8.80258 6.60058 8.80258C6.60058 8.80258 7.0046 8.76249 7.54344 8.87156Z" fill="url(#paint0_linear_2993_5137)"/>
</g>
<g clip-path="url(#clip1_2993_5137)">
<path d="M36.4566 8.87156C35.9177 8.98063 35.249 9.238 34.7256 9.78161C34.3233 10.1835 34.1066 10.6987 33.8929 11.1733C33.8929 11.1733 33.9411 10.9889 33.9569 10.7048C33.9824 10.4189 34.017 10.0409 34.0467 9.66383C34.0813 9.28589 34.111 8.9088 34.1374 8.62779C34.1336 8.347 34.1306 8.15656 34.1306 8.15656C34.5358 8.14617 35.5665 8.06188 36.2084 7.16086C36.4049 6.8753 36.561 6.53145 36.6463 6.18487C36.7112 5.83682 36.7337 5.47606 36.7386 5.15858C36.733 4.52129 36.6479 4.03356 36.6479 4.03356C36.6479 4.03356 36.2885 4.07616 35.8487 4.26343C35.405 4.45644 34.876 4.79497 34.5278 5.3633C34.2753 5.75916 34.1777 6.20839 34.0914 6.63556C34.0914 6.63556 34.0916 6.55009 34.0792 6.42158C34.062 6.29392 34.0428 6.12639 34.0187 5.95971C33.9747 5.62062 33.9306 5.28153 33.9306 5.28153C34.0535 5.06409 34.2421 4.70452 34.3542 4.25274C34.4429 3.81009 34.4657 3.2784 34.3323 2.74382C34.1891 2.0099 33.643 1.47193 33.2545 1.11753C32.8465 0.766539 32.5009 0.600658 32.5009 0.600658C32.5009 0.600658 32.3499 0.973779 32.2439 1.48982C32.1242 2.01328 32.1338 2.64484 32.2527 3.29756C32.3662 3.77531 32.6192 4.18852 32.8904 4.53322C33.1421 4.88132 33.3916 5.15944 33.5728 5.33388C33.5728 5.33388 33.6697 5.97537 33.7275 6.62366C33.7454 7.27388 33.7585 7.92495 33.7585 7.92495C33.6365 7.514 33.4469 7.08973 33.1467 6.78025C32.7159 6.32769 32.0841 6.19164 31.6239 6.14628C31.1498 6.10835 30.7938 6.17046 30.7938 6.17046C30.7938 6.17046 30.7994 6.25995 30.8249 6.40627C30.8504 6.55259 30.9008 6.75489 30.9416 6.989C31.033 7.45552 31.2424 8.02209 31.6732 8.47465C32.2841 9.18225 33.2941 9.383 33.7071 9.41651C33.7071 9.41651 33.6402 10.1569 33.5791 10.9013C33.4299 11.6309 33.2808 12.3606 33.2808 12.3606C33.2614 11.8463 33.1613 11.3009 32.8974 10.8544C32.4753 10.2495 31.8504 9.95146 31.3364 9.79988C30.8176 9.64914 30.413 9.63429 30.413 9.63429C30.413 9.63429 30.372 10.0334 30.3988 10.5615C30.384 11.0817 30.4696 11.7453 30.8307 12.3457C31.3677 13.2923 32.4319 13.7751 32.8685 13.9151C32.8685 13.9151 32.6408 14.5981 32.4132 15.2811C32.1096 15.9321 31.8012 16.584 31.8012 16.584C31.9139 15.9914 32.0092 15.3566 31.7589 14.757C31.4503 13.9966 30.8461 13.5291 30.3189 13.2441C29.7918 12.9591 29.3498 12.8453 29.3498 12.8453C29.3498 12.8453 29.1835 13.2462 29.1129 13.8214C29.0097 14.3821 28.9019 15.0895 29.1615 15.8282C29.5065 16.9993 30.5594 17.8208 30.9863 18.0781C30.9863 18.0781 30.6277 18.6733 30.2406 19.2485C29.8027 19.7922 29.3697 20.3352 29.3697 20.3352C29.658 19.7119 29.9556 19.0268 29.81 18.2782C29.6698 17.388 29.1261 16.7491 28.6296 16.323C28.1274 15.893 27.6756 15.6652 27.6756 15.6652C27.6756 15.6652 27.4041 16.0393 27.1887 16.6196C27.0966 16.9272 26.9369 17.2214 26.859 17.5818C26.7697 17.9341 26.7287 18.3332 26.7726 18.7578C26.8331 20.0841 27.7775 21.2914 28.1433 21.6598C28.1433 21.6598 28.0011 21.7952 27.7918 22.0076C27.6844 22.1117 27.5648 22.2331 27.4315 22.3619C27.2859 22.4778 27.1256 22.5962 26.971 22.7187C26.3463 23.1995 25.7167 23.6813 25.7167 23.6813L25.9191 23.9777C25.9191 23.9777 26.8208 23.2977 27.7026 22.591C28.1058 22.194 28.5098 21.8019 28.8096 21.5034C28.9598 21.3565 29.0883 21.2286 29.1739 21.1433C29.2587 21.0531 29.299 20.9958 29.299 20.9958C29.693 21.3241 30.8839 22.3025 32.488 21.8468C33.5044 21.5941 34.3143 20.7341 34.9192 19.9954C35.0675 19.8087 35.2021 19.6294 35.3237 19.4624C35.4291 19.2882 35.5117 19.1281 35.5791 18.9957C35.7187 18.7301 35.789 18.557 35.789 18.557C35.789 18.557 35.3524 18.3015 34.6945 18.1599C34.3651 18.0867 33.9854 18.0424 33.5819 18.0625C33.1889 18.0858 32.7557 18.1664 32.2953 18.3221C31.5526 18.5874 30.9679 19.0965 30.4447 19.5546C30.4447 19.5546 30.5683 19.4275 30.6984 19.1937C30.84 18.968 31.0241 18.6695 31.2131 18.3702C31.4022 18.0708 31.5912 17.7715 31.727 17.5418C31.8522 17.3088 31.9242 17.1455 31.9242 17.1455C32.358 17.3563 33.6077 17.9223 34.8997 17.2044C35.7349 16.7773 36.2612 15.8763 36.6315 15.1182C36.811 14.7351 36.9622 14.3921 37.0278 14.1344C37.0934 13.8767 37.1207 13.7161 37.1207 13.7161C37.1207 13.7161 36.6842 13.5762 36.081 13.5758C35.7799 13.5781 35.4382 13.6075 35.0882 13.7038C34.7217 13.7928 34.3403 13.9398 33.9848 14.1777C33.4202 14.5426 33.0107 15.0764 32.6702 15.573C32.6702 15.573 32.6926 15.5289 32.7255 15.4578C32.7526 15.3827 32.7883 15.2709 32.8313 15.1428C32.9165 14.8817 33.0367 14.5341 33.1521 14.1873C33.2675 13.8404 33.3936 13.4968 33.4681 13.2325C33.5214 12.9619 33.5607 12.7842 33.5607 12.7842C33.9985 12.8736 35.1803 13.0796 36.1359 12.2194C36.4253 11.9477 36.7018 11.603 36.8626 11.2282C37.0234 10.8533 37.14 10.4561 37.2179 10.0957C37.3785 9.37413 37.3994 8.80258 37.3994 8.80258C37.3994 8.80258 36.9954 8.76249 36.4566 8.87156Z" fill="url(#paint1_linear_2993_5137)"/>
</g>
<defs>
<linearGradient id="paint0_linear_2993_5137" x1="18.2272" y1="24.0032" x2="0.152836" y2="13.0969" gradientUnits="userSpaceOnUse">
<stop stop-color="#0099FF"/>
<stop offset="1" stop-color="#50D5FF"/>
</linearGradient>
<linearGradient id="paint1_linear_2993_5137" x1="25.7728" y1="24.0032" x2="43.8472" y2="13.0969" gradientUnits="userSpaceOnUse">
<stop stop-color="#0099FF"/>
<stop offset="1" stop-color="#50D5FF"/>
</linearGradient>
<clipPath id="clip0_2993_5137">
<rect width="14.1549" height="21.8933" fill="white" transform="translate(8.05566) rotate(9.89497)"/>
</clipPath>
<clipPath id="clip1_2993_5137">
<rect width="14.1549" height="21.8933" fill="white" transform="matrix(-0.985124 0.171843 0.171843 0.985124 35.9443 0)"/>
</clipPath>
</defs>
</svg>
