<svg width="323" height="81" viewBox="0 0 323 81" fill="none" xmlns="http://www.w3.org/2000/svg">
<g filter="url(#filter0_d_3852_5721)">
<path d="M72.3963 59.4109L68.8747 46.9755H47.926C47.013 46.9755 46.2361 46.3929 45.9877 45.5322L42.0874 31.7402H18.6779C17.2256 31.7402 16.1303 33.1668 16.5168 34.5402L20.0385 46.9755L23.9387 60.7675C24.1783 61.6282 24.9552 62.2109 25.8691 62.2109H70.2362C71.6885 62.2109 72.7838 60.7842 72.3973 59.4109H72.3963Z" fill="url(#paint0_linear_3852_5721)"/>
<path d="M37.6994 46.9755H68.873L64.9727 33.1836C64.7331 32.3229 63.9562 31.7402 63.0423 31.7402H31.8608L35.7611 45.5322C36.0096 46.3929 36.7865 46.9755 37.6994 46.9755Z" fill="#0594CC"/>
<path d="M68.8739 46.9706H77.9177C79.3699 46.9706 80.4741 45.544 80.0788 44.1706L72.6568 17.9434C72.4173 17.0827 71.6404 16.5 70.7264 16.5H30.5091C29.0568 16.5 27.9526 17.9266 28.3391 19.3L31.8608 31.7353H63.0432C63.9562 31.7353 64.7331 32.318 64.9736 33.1787L68.8739 46.9706Z" fill="url(#paint1_linear_3852_5721)"/>
<path d="M39.9706 26.209H35.607C35.2304 26.209 34.8991 25.9585 34.7966 25.5957L33.9043 22.4428C33.7525 21.9055 34.1557 21.3711 34.7147 21.3711H39.0784C39.455 21.3711 39.7863 21.6215 39.8888 21.9843L40.7811 25.1373C40.9329 25.6746 40.5297 26.209 39.9706 26.209Z" fill="url(#paint2_linear_3852_5721)"/>
<path d="M65.5107 57.7402H29.2203C28.8437 57.7402 28.5124 57.4898 28.4099 57.127L27.5176 53.974C27.3658 53.4367 27.769 52.9023 28.328 52.9023H64.6185C64.9951 52.9023 65.3264 53.1528 65.4289 53.5156L66.3212 56.6685C66.473 57.2059 66.0698 57.7402 65.5107 57.7402Z" fill="url(#paint3_linear_3852_5721)"/>
<path d="M96.2863 63.2789L82.8486 17.1842H87.9404L99.1036 56.6634L111.025 17.1842H116.553L128.583 56.6634L139.638 17.1842H144.84L131.184 63.2789H125.765L113.843 23.4989L101.705 63.2789H96.2863Z" fill="white"/>
<path d="M178.637 30.4485H183.803C183.803 21.4094 189.413 16.5 196.845 16.5H199.172V23.9908C193.076 23.7842 191.897 28.2098 192.069 30.4485H199.172V38.4559H192.069V63.2789H183.803V43.1054C185.56 40.524 189.098 38.9301 190.648 38.4559H178.637V30.4485Z" fill="white"/>
<path fill-rule="evenodd" clip-rule="evenodd" d="M177.768 49.0907H148.281C149.169 52.6735 151.673 59.8001 160.932 59.8001C167.938 59.8001 172.061 56.6634 172.061 54.6076L176.151 57.1758C175.168 59.6172 170.223 64.5 160.932 64.5C148.281 64.5 143.811 53.1808 143.811 46.3322C143.811 39.4836 149.423 29.5912 160.932 29.5912C173.583 29.5912 177.768 41.0055 177.768 49.0907ZM160.932 33.7765C152.657 33.7445 149.55 41.0372 148.662 44.7152H173.107C172.251 41.1007 169.208 33.8085 160.932 33.7765Z" fill="white"/>
<path d="M237.46 30.4485V63.2789H245.887V45.2651C245.887 38.9453 249.102 36.8985 252.539 36.8985C255.976 36.8985 259.857 39.5594 259.635 46.5445C259.458 52.1325 259.561 60.0291 259.635 63.2789H267.84V42.8857C267.84 34.0158 262.462 29.2482 255.2 29.2482C247.939 29.2482 245.887 33.665 245.887 33.665V30.4485H237.46Z" fill="white"/>
<path fill-rule="evenodd" clip-rule="evenodd" d="M297.783 33.665V17.0097H306.562V63.2789H297.783V59.8001C296.319 61.1676 292.215 63.9025 287.505 63.9025C281.616 63.9025 271.124 59.424 271.124 46.5445C271.124 33.665 281.83 29.2482 287.505 29.2482C292.044 29.2482 296.248 32.1927 297.783 33.665ZM279.582 46.5445C279.495 41.3087 283.661 36.7755 288.896 36.8985C294.017 37.0188 297.868 41.4234 297.783 46.5445C297.699 51.5751 293.926 55.7546 288.896 55.8729C283.75 55.994 279.668 51.6918 279.582 46.5445Z" fill="white"/>
<path d="M201.219 30.4485H209.565V49.0907C209.565 54.6076 213.29 55.9475 216.411 55.9295C219.533 55.9114 223.703 53.973 223.703 49.0907C223.703 44.2083 223.526 36.4521 223.703 30.4485H231.796V63.2789H223.703V59.8001C222.636 61.5261 218.901 63.9331 213.832 63.9331C207.073 63.9331 201.219 58.3661 201.219 52.4612V30.4485Z" fill="white"/>
</g>
<defs>
<filter id="filter0_d_3852_5721" x="0.306927" y="0.36845" width="322.386" height="80.2631" filterUnits="userSpaceOnUse" color-interpolation-filters="sRGB">
<feFlood flood-opacity="0" result="BackgroundImageFix"/>
<feColorMatrix in="SourceAlpha" type="matrix" values="0 0 0 0 0 0 0 0 0 0 0 0 0 0 0 0 0 0 127 0" result="hardAlpha"/>
<feOffset/>
<feGaussianBlur stdDeviation="8.06577"/>
<feComposite in2="hardAlpha" operator="out"/>
<feColorMatrix type="matrix" values="0 0 0 0 0.309804 0 0 0 0 0.839216 0 0 0 0 1 0 0 0 0.12 0"/>
<feBlend mode="normal" in2="BackgroundImageFix" result="effect1_dropShadow_3852_5721"/>
<feBlend mode="normal" in="SourceGraphic" in2="effect1_dropShadow_3852_5721" result="shape"/>
</filter>
<linearGradient id="paint0_linear_3852_5721" x1="75.1145" y1="62.5323" x2="27.1114" y2="44.4625" gradientUnits="userSpaceOnUse">
<stop stop-color="#B8EDFF"/>
<stop offset="1" stop-color="#09B8F1"/>
</linearGradient>
<linearGradient id="paint1_linear_3852_5721" x1="91.5213" y1="38.6111" x2="54.8946" y2="26.93" gradientUnits="userSpaceOnUse">
<stop stop-color="#B8EDFF"/>
<stop offset="1" stop-color="#09B8F1"/>
</linearGradient>
<linearGradient id="paint2_linear_3852_5721" x1="41.906" y1="23.7905" x2="31.8418" y2="23.7905" gradientUnits="userSpaceOnUse">
<stop stop-color="#50D5FE"/>
<stop offset="1" stop-color="#E0F4FF"/>
</linearGradient>
<linearGradient id="paint3_linear_3852_5721" x1="62.9129" y1="55.3218" x2="24.4682" y2="55.3218" gradientUnits="userSpaceOnUse">
<stop stop-color="#50D5FE"/>
<stop offset="1" stop-color="#E0F4FF"/>
</linearGradient>
</defs>
</svg>
