<svg width="448" height="279" viewBox="0 0 448 279" fill="none" xmlns="http://www.w3.org/2000/svg">
<g clip-path="url(#clip0_9627_7806)">
<rect width="447.5" height="279" rx="14" fill="#23263E" fill-opacity="0.3"/>
<path opacity="0.1" d="M481.437 -6.1909C494.508 4.60458 505.318 18.5416 512.595 35.1246L545.699 110.557C570.561 167.208 544.791 233.287 488.14 258.149L392.321 300.2C335.67 325.062 269.591 299.292 244.729 242.641L211.625 167.209C204.255 150.415 201.334 132.793 202.348 115.662C203.131 102.434 203.631 89.092 202.735 75.8706C199.003 20.8232 222.789 -40.3904 287.673 -68.8652C352.864 -97.4751 414.292 -73.176 452.238 -32.8195C461.253 -23.2318 471.29 -14.5714 481.437 -6.1909Z" fill="url(#paint0_linear_9627_7806)" fill-opacity="0.4"/>
<path opacity="0.4" d="M326.345 19.2556C352.664 7.70558 381.714 23.3157 393.012 49.0601L400.853 66.9252L403.676 65.6863C411.659 62.1828 420.971 65.8137 424.474 73.7969L457.579 149.229L457.738 149.604C460.968 157.502 457.326 166.58 449.467 170.029L353.648 212.08C345.665 215.583 336.353 211.951 332.85 203.968L299.745 128.536C296.242 120.552 299.873 111.241 307.856 107.738L376.226 77.7328L368.386 59.8677C361.683 44.5941 346.939 39.5875 337.153 43.882C327.368 48.1764 321.07 62.4174 327.773 77.691C330.757 84.4913 327.664 92.4228 320.864 95.4073C314.064 98.3917 306.131 95.2988 303.147 88.4985C291.849 62.7541 300.027 30.8056 326.345 19.2556Z" stroke="url(#paint1_linear_9627_7806)" stroke-opacity="0.4" stroke-width="0.466083"/>
<path fill-rule="evenodd" clip-rule="evenodd" d="M334.836 38.601C321.546 44.4333 314.785 62.4426 322.493 80.0079C324.198 83.8919 322.431 88.4223 318.547 90.1268C314.663 91.8313 310.133 90.0645 308.428 86.1805C298.099 62.6443 305.923 34.5158 328.664 24.5358C351.404 14.5559 377.403 27.841 387.732 51.3772L400.157 79.6895L386.092 85.8622L373.667 57.5499C365.958 39.9845 348.126 32.7686 334.836 38.601Z" fill="url(#paint2_linear_9627_7806)"/>
<rect opacity="0.4" x="301.183" y="117.047" width="124.678" height="102.414" rx="10.0188" transform="rotate(-23.6948 301.183 117.047)" fill="url(#paint3_linear_9627_7806)" fill-opacity="0.6"/>
<path d="M396.826 144.236L391.942 138.313L380.548 143.314C380.052 143.531 379.49 143.4 379.149 142.991L373.736 136.421L361.004 142.008C360.214 142.355 359.959 143.392 360.497 144.047L365.38 149.97L370.794 156.54C371.129 156.951 371.691 157.083 372.188 156.865L396.319 146.275C397.109 145.928 397.364 144.891 396.826 144.236L396.826 144.236Z" fill="#23353E" fill-opacity="0.5"/>
<path d="M396.826 144.236L391.942 138.313L380.548 143.314C380.052 143.531 379.49 143.4 379.149 142.991L373.736 136.421L361.004 142.008C360.214 142.355 359.959 143.392 360.497 144.047L365.38 149.97L370.794 156.54C371.129 156.951 371.691 157.083 372.188 156.865L396.319 146.275C397.109 145.928 397.364 144.891 396.826 144.236L396.826 144.236Z" fill="url(#paint4_linear_9627_7806)"/>
<mask id="path-8-inside-1_9627_7806" fill="white">
<path d="M374.985 145.752L391.941 138.311L386.527 131.741C386.191 131.33 385.63 131.198 385.133 131.417L368.173 138.859L373.587 145.43C373.927 145.839 374.489 145.97 374.985 145.752Z"/>
</mask>
<path d="M374.985 145.752L391.941 138.311L386.527 131.741C386.191 131.33 385.63 131.198 385.133 131.417L368.173 138.859L373.587 145.43C373.927 145.839 374.489 145.97 374.985 145.752Z" fill="#23283E" fill-opacity="0.5"/>
<path d="M374.985 145.752L391.941 138.311L386.527 131.741C386.191 131.33 385.63 131.198 385.133 131.417L368.173 138.859L373.587 145.43C373.927 145.839 374.489 145.97 374.985 145.752Z" fill="url(#paint5_linear_9627_7806)"/>
<path d="M391.941 138.311L447.86 265.731L616.31 191.805L499.335 49.8286L391.941 138.311ZM386.527 131.741L278.77 219.78L278.951 220.002L279.133 220.223L386.527 131.741ZM368.173 138.859L312.254 11.44L143.804 85.3659L260.779 227.342L368.173 138.859ZM373.587 145.43L266.193 233.912L266.433 234.204L266.674 234.494L373.587 145.43ZM374.985 145.752L430.905 273.172L447.86 265.731L391.941 138.311L336.021 10.8918L319.066 18.3328L374.985 145.752ZM391.941 138.311L499.335 49.8286L493.921 43.2582L386.527 131.741L279.133 220.223L284.547 226.794L391.941 138.311ZM386.527 131.741L494.285 43.7013C453.361 -6.38836 385.378 -20.6512 329.213 3.99717L385.133 131.417L441.052 258.836C385.882 283.048 319.022 269.048 278.77 219.78L386.527 131.741ZM385.133 131.417L329.213 3.99717L312.254 11.44L368.173 138.859L424.093 266.279L441.052 258.836L385.133 131.417ZM368.173 138.859L260.779 227.342L266.193 233.912L373.587 145.43L480.981 56.9471L475.567 50.3767L368.173 138.859ZM373.587 145.43L266.674 234.494C307.258 283.211 374.463 297.941 430.905 273.172L374.985 145.752L319.066 18.3328C374.515 -6.00136 440.597 8.46644 480.499 56.366L373.587 145.43Z" fill="#23263E" fill-opacity="0.28" mask="url(#path-8-inside-1_9627_7806)"/>
<path d="M391.941 138.31L396.86 136.152C397.649 135.805 397.91 134.766 397.367 134.113L387.07 121.62C386.734 121.209 386.172 121.077 385.675 121.295L363.801 130.895C363.011 131.242 362.751 132.281 363.289 132.936L368.173 138.859L385.133 131.416C385.629 131.198 386.191 131.329 386.527 131.74L391.941 138.31Z" fill="#23353E" fill-opacity="0.5"/>
<path d="M391.941 138.31L396.86 136.152C397.649 135.805 397.91 134.766 397.367 134.113L387.07 121.62C386.734 121.209 386.172 121.077 385.675 121.295L363.801 130.895C363.011 131.242 362.751 132.281 363.289 132.936L368.173 138.859L385.133 131.416C385.629 131.198 386.191 131.329 386.527 131.74L391.941 138.31Z" fill="url(#paint6_linear_9627_7806)"/>
<path d="M371.264 133.914L368.89 134.955C368.686 135.045 368.446 134.988 368.303 134.815L367.065 133.313C366.855 133.057 366.946 132.671 367.25 132.537L369.624 131.496C369.829 131.406 370.068 131.463 370.211 131.636L371.449 133.138C371.66 133.394 371.568 133.78 371.264 133.914Z" fill="url(#paint7_linear_9627_7806)"/>
<path d="M392.682 144.969L372.944 153.631C372.739 153.721 372.499 153.664 372.356 153.491L371.119 151.989C370.908 151.733 370.999 151.346 371.304 151.213L391.042 142.551C391.247 142.461 391.487 142.518 391.629 142.691L392.867 144.193C393.078 144.449 392.986 144.836 392.682 144.969Z" fill="url(#paint8_linear_9627_7806)"/>
</g>
<rect x="0.5" y="0.5" width="446.5" height="278" rx="13.5" stroke="#23353E" stroke-opacity="0.5"/>
<defs>
<linearGradient id="paint0_linear_9627_7806" x1="207.293" y1="393.797" x2="235.597" y2="-48.697" gradientUnits="userSpaceOnUse">
<stop stop-color="#141518"/>
<stop offset="1" stop-color="#5D78E1"/>
</linearGradient>
<linearGradient id="paint1_linear_9627_7806" x1="283.127" y1="40.8997" x2="328.586" y2="90.6614" gradientUnits="userSpaceOnUse">
<stop stop-color="#141518"/>
<stop offset="1" stop-color="#5D78E1"/>
</linearGradient>
<linearGradient id="paint2_linear_9627_7806" x1="283.502" y1="121.446" x2="356.642" y2="86.8571" gradientUnits="userSpaceOnUse">
<stop stop-color="#141518"/>
<stop offset="1" stop-color="#5D78E1"/>
</linearGradient>
<linearGradient id="paint3_linear_9627_7806" x1="306.273" y1="167" x2="363.368" y2="125.952" gradientUnits="userSpaceOnUse">
<stop stop-color="#141518"/>
<stop offset="1" stop-color="#5D78E1"/>
</linearGradient>
<linearGradient id="paint4_linear_9627_7806" x1="361.397" y1="142.384" x2="383.171" y2="159.941" gradientUnits="userSpaceOnUse">
<stop stop-color="#5865F2"/>
<stop offset="1" stop-color="#83B2FF"/>
</linearGradient>
<linearGradient id="paint5_linear_9627_7806" x1="369.205" y1="138.681" x2="379.601" y2="149.025" gradientUnits="userSpaceOnUse">
<stop stop-color="#5865F2"/>
<stop offset="1" stop-color="#5893F2"/>
</linearGradient>
<linearGradient id="paint6_linear_9627_7806" x1="364.086" y1="131.319" x2="386.029" y2="147.88" gradientUnits="userSpaceOnUse">
<stop stop-color="#5865F2"/>
<stop offset="1" stop-color="#83B2FF"/>
</linearGradient>
<linearGradient id="paint7_linear_9627_7806" x1="366.999" y1="132.735" x2="370.505" y2="134.984" gradientUnits="userSpaceOnUse">
<stop stop-color="#A4ACFF"/>
<stop offset="1" stop-color="#A3C6FE"/>
</linearGradient>
<linearGradient id="paint8_linear_9627_7806" x1="371.855" y1="151.058" x2="374.374" y2="155.34" gradientUnits="userSpaceOnUse">
<stop stop-color="#A4ACFF"/>
<stop offset="1" stop-color="#A3C6FE"/>
</linearGradient>
<clipPath id="clip0_9627_7806">
<rect width="447.5" height="279" rx="14" fill="white"/>
</clipPath>
</defs>
</svg>
